<?xml version="1.0" encoding="utf-8"?>
<!-- Generator: Adobe Illustrator 24.2.3, SVG Export Plug-In . SVG Version: 6.00 Build 0)  -->
<svg version="1.1" id="レイヤー_1" xmlns="http://www.w3.org/2000/svg" xmlns:xlink="http://www.w3.org/1999/xlink" x="0px"
	 y="0px" viewBox="0 0 200 200" style="enable-background:new 0 0 200 200;" xml:space="preserve">
<style type="text/css">
	.st0{fill:#19A78E;}
</style>
<path class="st0" d="M39.4,117.6l49.2,49.6l0.4,0.4c3.6,3.6,8,5.2,12.4,5.2s9.2-1.6,12.4-5.2l0.4-0.4l49.6-49.6
	c6.8-6.8,6.8-18,0-24.8l0,0c-6.8-6.8-18-6.8-24.8,0l-20.4,20.4V45.6c0-9.6-8-17.6-17.6-17.6s-17.6,8-17.6,17.6v66L64.6,92.8
	c-6.8-6.8-18-6.8-24.8,0l0,0C32.6,99.6,32.6,110.8,39.4,117.6z"/>
</svg>
