<?xml version="1.0" encoding="utf-8"?>
<!-- Generator: Adobe Illustrator 24.0.1, SVG Export Plug-In . SVG Version: 6.00 Build 0)  -->
<svg version="1.1" id="レイヤー_1" xmlns="http://www.w3.org/2000/svg" xmlns:xlink="http://www.w3.org/1999/xlink" x="0px"
	 y="0px" viewBox="0 0 66.4 42.8" style="enable-background:new 0 0 66.4 42.8;" xml:space="preserve">
<style type="text/css">
	.st0{fill:none;stroke:#FFFFFF;stroke-width:3;stroke-linejoin:round;stroke-miterlimit:10;}
	.st1{fill:none;stroke:#FFFFFF;stroke-width:3;stroke-linecap:round;stroke-linejoin:round;stroke-miterlimit:10;}
</style>
<g>
	<path class="st0" d="M2,38.2c0,1.1,0.9,2,2,2h58c1.1,0,2-0.9,2-2v-34c0-1.1-0.9-2-2-2H4c-1.1,0-2,0.9-2,2V38.2z"/>
	<path class="st1" d="M33,26.2C24.6,20,2,3.3,2,4.2v34c0,1.1,0.9,2,2,2h58c1.1,0,2-0.9,2-2v-34C64,3.1,33,26.2,33,26.2"/>
	<line class="st0" x1="63" y1="39.2" x2="39" y2="22.2"/>
	<line class="st0" x1="3" y1="39.2" x2="27" y2="22.2"/>
</g>
</svg>
