<?xml version="1.0" encoding="utf-8"?>
<!-- Generator: Adobe Illustrator 24.2.3, SVG Export Plug-In . SVG Version: 6.00 Build 0)  -->
<svg version="1.1" id="レイヤー_1" xmlns="http://www.w3.org/2000/svg" xmlns:xlink="http://www.w3.org/1999/xlink" x="0px"
	 y="0px" viewBox="0 0 45.1 64" style="enable-background:new 0 0 45.1 64;" xml:space="preserve">
<style type="text/css">
	.st0{fill:#FFFFFF;}
</style>
<g>
	<path class="st0" d="M2.9,19.3c0,0,2.4,6.7,8.7,19.5c0,0,0,0,0,0.1C17.9,51.7,22,57.4,22,57.4c4.1,4.4,11.1,6.4,18.4,2.8
		c4.1-2,3.3-6.6-0.4-14.2l0,0l0,0c-3.3-6.8-7.1-7-9.6-4.9c-0.5,0.4-2.1,1.9-2.2,2.3c0,0-1.5,2.4-7.1-9.1s-3.3-10.9-3.3-10.9
		c0.4,0.1,2.6,0.4,3.2,0.2c3.2-0.7,5.7-4,2-11.4l0,0l0,0c-3.7-7.6-6.8-11-10.9-9.1C6,6,2,13.4,2.9,19.3z"/>
</g>
</svg>
