<?xml version="1.0" encoding="utf-8"?>
<!-- Generator: Adobe Illustrator 24.2.3, SVG Export Plug-In . SVG Version: 6.00 Build 0)  -->
<svg version="1.1" id="レイヤー_1" xmlns="http://www.w3.org/2000/svg" xmlns:xlink="http://www.w3.org/1999/xlink" x="0px"
	 y="0px" viewBox="0 0 80 80" style="enable-background:new 0 0 80 80;" xml:space="preserve">
<style type="text/css">
	.st0{fill:none;stroke:#19A78E;stroke-width:0.8076;stroke-linecap:round;stroke-linejoin:round;stroke-miterlimit:10;}
	.st1{fill:#19A78E;}
</style>
<g>
	<g>
		<line class="st0" x1="7.7" y1="39.9" x2="26" y2="19.9"/>
		<path class="st1" d="M23.6,23.5c-1.6,2.1-3.7,4.7-6,7.2s-4.7,4.9-6.6,6.6S7.7,40,7.7,40s0.9-1.5,2.4-3.6c1.6-2.1,3.7-4.7,6-7.2
			s4.7-4.9,6.6-6.6c1.9-1.7,3.3-2.7,3.3-2.7S25.1,21.4,23.6,23.5z"/>
	</g>
</g>
<g>
	<g>
		<line class="st0" x1="30.7" y1="14.7" x2="38.5" y2="6.2"/>
		<path class="st1" d="M37.7,8c-0.5,0.9-1.3,2.1-2.3,3.2c-1,1-2.1,2-3,2.6c-0.9,0.6-1.7,0.9-1.7,0.9s0.3-0.8,0.8-1.8
			c0.5-0.9,1.3-2.1,2.3-3.2c1-1,2.1-2,3-2.6s1.7-0.9,1.7-0.9S38.3,6.9,37.7,8z"/>
	</g>
</g>
<g>
	<g>
		<line class="st0" x1="16.2" y1="54.2" x2="41.8" y2="38.7"/>
		<path class="st1" d="M38.2,41.7c-2.2,1.8-5.3,3.9-8.5,5.8c-3.2,1.9-6.5,3.7-9.1,4.9c-2.6,1.2-4.4,1.8-4.4,1.8s1.3-1.3,3.6-3
			c2.2-1.8,5.3-3.9,8.5-5.8s6.5-3.7,9.1-4.9c2.6-1.2,4.4-1.8,4.4-1.8S40.4,40,38.2,41.7z"/>
	</g>
</g>
<g>
	<g>
		<line class="st0" x1="48.3" y1="34.7" x2="59.2" y2="28.1"/>
		<path class="st1" d="M57.9,29.7c-0.9,0.9-2.1,1.9-3.5,2.7c-1.4,0.8-2.8,1.4-4,1.8c-1.2,0.3-2.1,0.4-2.1,0.4s0.4-0.7,1.3-1.6
			c0.9-0.9,2.1-1.9,3.5-2.7c1.4-0.8,2.8-1.4,4-1.8c1.2-0.3,2.1-0.4,2.1-0.4S58.7,28.9,57.9,29.7z"/>
	</g>
</g>
<g>
	<g>
		<line class="st0" x1="19.6" y1="68" x2="46" y2="62.8"/>
		<path class="st1" d="M42,64.3c-2.4,0.9-5.7,1.7-9,2.4c-3.3,0.6-6.7,1-9.2,1.2c-2.6,0.2-4.3,0.1-4.3,0.1s1.6-0.8,4-1.6
			s5.7-1.6,9-2.3c3.3-0.6,6.7-1,9.2-1.2c2.6-0.2,4.3-0.1,4.3-0.1S44.5,63.5,42,64.3z"/>
	</g>
</g>
<g>
	<g>
		<line class="st0" x1="50.7" y1="61.9" x2="73.9" y2="57.3"/>
		<path class="st1" d="M70.4,58.8c-2.1,0.7-5,1.5-7.9,2.1c-2.9,0.5-5.9,0.9-8.1,1c-2.3,0.1-3.8,0-3.8,0s1.4-0.8,3.5-1.5
			c2.1-0.7,5-1.5,7.9-2.1c2.9-0.5,5.9-0.9,8.1-1c2.3-0.1,3.8,0,3.8,0S72.5,58,70.4,58.8z"/>
	</g>
</g>
</svg>
